#!OML:ASF H:\Pregnant\Project 1\Capture day 1\Session 1\femalepreg.ASF
:FULLY-SPECIFIED
:DEGREES
273
root 5.95955 15.8696 13.0913 25.2019 1.22817 -0.851714
lowerback -12.3915 -0.520693 -2.44207
upperback -4.05874 -0.362816 -0.882621
thorax 2.70219 -0.178273 0.40585
lowerneck -24.8476 -9.01657 -4.65861
upperneck 14.6421 -13.722 13.6492
head 10.1002 -5.10383 3.29469
rclavicle 6.55989e-015 6.36111e-015
rhumerus -30.2716 29.8606 -94.2657
rradius 70.8351
rwrist -37.3612
rhand -11.2061 -19.5552
rfingers 7.12502
rthumb 14.8219 -49.0051
lclavicle 6.55989e-015 6.36111e-015
lhumerus -27.3239 -26.9336 93.6816
lradius 66.918
lwrist 61.2649
lhand -21.6746 10.0321
lfingers 7.12502
lthumb 4.72296 39.9595
rfemur -25.9793 16.976 -3.91771
rtibia 21.2413
rfoot -25.4663 -43.1651
rtoes 21.9133
lfemur -27.9241 -5.20262 -17.3713
ltibia 14.5848
lfoot -5.56757 8.71331
ltoes -17.2682
274
root 6.01388 15.8766 13.087 25.3289 1.10919 -1.02032
lowerback -12.2807 -0.485214 -2.43673
upperback -4.03637 -0.323329 -0.78338
thorax 2.66485 -0.158126 0.512373
lowerneck -24.949 -9.13948 -4.72973
upperneck 14.3923 -13.8546 13.7636
head 10.0579 -5.16385 3.31755
rclavicle -3.18055e-015 -2.38542e-015
rhumerus -30.2794 30.0047 -94.3678
rradius 70.5697
rwrist -37.3562
rhand -11.0636 -19.2784
rfingers 7.12502
rthumb 14.9592 -48.7182
lclavicle -3.18055e-015 -2.38542e-015
lhumerus -27.7207 -26.9188 93.7609
lradius 66.8996
lwrist 61.5082
lhand -21.5809 9.70619
lfingers 7.12502
lthumb 4.81349 39.6315
rfemur -26.3338 16.6574 -3.95044
rtibia 21.3376
rfoot -25.6129 -42.937
rtoes 23.3435
lfemur -28.1213 -5.17149 -17.4085
ltibia 14.6925
lfoot -5.59061 8.78312
ltoes -16.97
275
root 6.06779 15.8838 13.0824 25.4578 0.953407 -1.18206
lowerback -12.1641 -0.447082 -2.44039
upperback -4.02131 -0.279257 -0.691614
thorax 2.61637 -0.135542 0.616716
lowerneck -25.0524 -9.26019 -4.79362
upperneck 14.1633 -13.9851 13.8599
head 10.0211 -5.22343 3.3333
rclavicle -3.47873e-015 -4.77083e-015
rhumerus -30.2723 30.1344 -94.4838
rradius 70.3224
rwrist -37.2968
rhand -10.8871 -19.017
rfingers 7.12502
rthumb 15.1292 -48.444
lclavicle -3.47873e-015 -4.77083e-015
lhumerus -28.1264 -26.8467 93.8197
lradius 66.9033
lwrist 61.787
lhand -21.5222 9.18746
lfingers 7.12502
lthumb 4.87013 39.1115
rfemur -26.7238 16.3176 -3.98923
rtibia 21.4555
rfoot -25.6292 -42.7485
rtoes 24.6495
lfemur -28.286 -5.13546 -17.4574
ltibia 14.7539
lfoot -5.5953 8.87565
ltoes -16.6716
276
root 6.12101 15.891 13.0779 25.5913 0.753744 -1.33547
lowerback -12.0487 -0.403588 -2.45573
upperback -4.01255 -0.226288 -0.6124
thorax 2.56148 -0.108419 0.715652
lowerneck -25.1518 -9.37783 -4.84464
upperneck 13.9454 -14.1135 13.9409
head 9.98514 -5.28282 3.34218
rclavicle 4.96962e-016 4.77083e-015
rhumerus -30.2452 30.2549 -94.6194
rradius 70.0869
rwrist -37.196
rhand -10.6942 -18.7558
rfingers 7.12502
rthumb 15.315 -48.1688
lclavicle 4.96962e-016 4.77083e-015
lhumerus -28.5371 -26.7356 93.8526
lradius 66.9271
lwrist 62.1214
lhand -21.457 8.82356
lfingers 7.12502
lthumb 4.93307 38.7461
rfemur -27.1557 15.9474 -4.03327
rtibia 21.5969
rfoot -25.4984 -42.5973
rtoes 25.8391
lfemur -28.4199 -5.08325 -17.5231
ltibia 14.7691
lfoot -5.58432 8.9885
ltoes -16.3958
277
root 6.17334 15.8986 13.0746 25.7268 0.491876 -1.48484
lowerback -11.9307 -0.357747 -2.50001
upperback -4.01679 -0.167113 -0.535062
thorax 2.49125 -0.077849 0.829585
lowerneck -25.2293 -9.48357 -4.89792
upperneck 13.7276 -14.2245 14.0206
head 9.94388 -5.33564 3.3547
rclavicle 3.57812e-015 3.57812e-015
rhumerus -30.2258 30.4038 -94.7852
rradius 69.8676
rwrist -37.0679
rhand -10.4987 -18.5217
rfingers 7.12502
rthumb 15.5033 -47.9201
lclavicle 3.57812e-015 3.57812e-015
lhumerus -28.969 -26.5704 93.8723
lradius 66.9708
lwrist 62.5165
lhand -21.4112 8.25521
lfingers 7.12502
lthumb 4.97732 38.1768
rfemur -27.6344 15.5696 -4.0853
rtibia 21.7605
rfoot -25.2417 -42.4867
rtoes 26.9308
lfemur -28.512 -5.00322 -17.6064
ltibia 14.7398
lfoot -5.56505 9.12957
ltoes -16.1345
278
root 6.22476 15.9064 13.0724 25.8661 0.171933 -1.6312
lowerback -11.8219 -0.306867 -2.56374
upperback -4.02616 -0.0985932 -0.466369
thorax 2.41999 -0.042484 0.946495
lowerneck -25.2719 -9.58096 -4.95569
upperneck 13.4909 -14.3242 14.118
head 9.8912 -5.38435 3.37696
rclavicle -1.09332e-015 -5.96354e-015
rhumerus -30.1933 30.5754 -94.9788
rradius 69.6485
rwrist -36.9059
rhand -10.3156 -18.2805
rfingers 7.12502
rthumb 15.6797 -47.6652
lclavicle -1.09332e-015 -5.96354e-015
lhumerus -29.403 -26.37 93.8655
lradius 67.0294
lwrist 62.9656
lhand -21.3981 7.36317
lfingers 7.12502
lthumb 4.98995 37.2844
rfemur -28.1609 15.1852 -4.14206
rtibia 21.9469
rfoot -24.8919 -42.4111
rtoes 27.9589
lfemur -28.5693 -4.8977 -17.7045
ltibia 14.6713
lfoot -5.53783 9.29832
ltoes -15.8875
279
root 6.27549 15.9142 13.0717 26.0107 -0.202921 -1.77767
lowerback -11.7211 -0.252949 -2.6444
upperback -4.04342 -0.0239868 -0.401798
thorax 2.34425 -0.00384501 1.06919
lowerneck -25.283 -9.66846 -5.02217
upperneck 13.2323 -14.4088 14.2349
head 9.82684 -5.42725 3.4109
rclavicle 1.98785e-016 -8.34896e-015
rhumerus -30.1584 30.7806 -95.201
rradius 69.4295
rwrist -36.7055
rhand -10.1441 -18.0321
rfingers 7.12502
rthumb 15.8449 -47.4037
lclavicle 1.98785e-016 -8.34896e-015
lhumerus -29.8414 -26.1348 93.839
lradius 67.0994
lwrist 63.4454
lhand -21.4125 6.31901
lfingers 7.12502
lthumb 4.97605 36.2406
rfemur -28.7325 14.7928 -4.19775
rtibia 22.1531
rfoot -24.466 -42.3657
rtoes 28.9328
lfemur -28.5974 -4.76912 -17.8139
ltibia 14.5708
lfoot -5.50403 9.49484
ltoes -15.6524
280
root 6.32554 15.922 13.0708 26.1633 -0.601739 -1.91911
lowerback -11.6333 -0.197028 -2.72457
upperback -4.05924 0.0539081 -0.347949
thorax 2.27657 0.0363766 1.18065
lowerneck -25.3003 -9.75381 -5.09721
upperneck 12.9821 -14.494 14.376
head 9.77005 -5.46756 3.45421
rclavicle 7.25564e-015 9.54166e-015
rhumerus -30.096 30.9994 -95.4363
rradius 69.2059
rwrist -36.4626
rhand -9.99458 -17.7816
rfingers 7.12502
rthumb 15.9889 -47.1418
lclavicle 7.25564e-015 9.54166e-015
lhumerus -30.2582 -25.8731 93.7808
lradius 67.1846
lwrist 63.9072
lhand -21.4141 5.3275
lfingers 7.12502
lthumb 4.97455 35.2491
rfemur -29.3421 14.38 -4.24771
rtibia 22.3799
rfoot -23.9657 -42.3627
rtoes 29.8398
lfemur -28.6199 -4.64233 -17.9283
ltibia 14.451
lfoot -5.45856 9.71247
ltoes -15.414
281
root 6.375 15.9295 13.0708 26.3242 -1.0345 -2.0618
lowerback -11.5535 -0.139508 -2.80912
upperback -4.08146 0.134545 -0.297834
thorax 2.20606 0.0781554 1.2908
lowerneck -25.2963 -9.83801 -5.18152
upperneck 12.7199 -14.5758 14.5306
head 9.70756 -5.5072 3.50467
rclavicle 9.14409e-015 1.63003e-014
rhumerus -30.0232 31.2462 -95.6882
rradius 68.9776
rwrist -36.1824
rhand -9.8308 -17.5632
rfingers 7.12502
rthumb 16.1466 -46.9106
lclavicle 9.14409e-015 1.63003e-014
lhumerus -30.6663 -25.5885 93.7041
lradius 67.2716
lwrist 64.3278
lhand -21.4307 4.54436
lfingers 7.12502
lthumb 4.9585 34.4663
rfemur -29.9927 13.965 -4.29074
rtibia 22.6268
rfoot -23.3745 -42.4123
rtoes 30.6562
lfemur -28.637 -4.51222 -18.0437
ltibia 14.3235
lfoot -5.41087 9.95841
ltoes -15.165
